<svg width="16" height="17" viewBox="0 0 16 17" fill="none" xmlns="http://www.w3.org/2000/svg">
<rect y="0.5" width="16" height="16" rx="8" fill="#774180"/>
<path d="M13.8538 8.85403L9.35375 13.354C9.25993 13.4478 9.13268 13.5006 9 13.5006C8.86732 13.5006 8.74007 13.4478 8.64625 13.354C8.55243 13.2602 8.49972 13.133 8.49972 13.0003C8.49972 12.8676 8.55243 12.7403 8.64625 12.6465L12.2931 9.00028H2.5C2.36739 9.00028 2.24021 8.9476 2.14645 8.85383C2.05268 8.76006 2 8.63289 2 8.50028C2 8.36767 2.05268 8.24049 2.14645 8.14672C2.24021 8.05296 2.36739 8.00028 2.5 8.00028H12.2931L8.64625 4.35403C8.55243 4.26021 8.49972 4.13296 8.49972 4.00028C8.49972 3.8676 8.55243 3.74035 8.64625 3.64653C8.74007 3.55271 8.86732 3.5 9 3.5C9.13268 3.5 9.25993 3.55271 9.35375 3.64653L13.8538 8.14653C13.9002 8.19296 13.9371 8.24811 13.9623 8.30881C13.9874 8.36951 14.0004 8.43457 14.0004 8.50028C14.0004 8.56599 13.9874 8.63105 13.9623 8.69175C13.9371 8.75245 13.9002 8.80759 13.8538 8.85403Z" fill="white"/>
</svg>
