<svg width="42" height="42" viewBox="0 0 42 42" fill="none" xmlns="http://www.w3.org/2000/svg">
<path d="M21 26.25C23.8995 26.25 26.25 23.8995 26.25 21C26.25 18.1005 23.8995 15.75 21 15.75C18.1005 15.75 15.75 18.1005 15.75 21C15.75 23.8995 18.1005 26.25 21 26.25Z" stroke="#774180" stroke-width="3" stroke-linecap="round" stroke-linejoin="round"/>
<path d="M21 28.875C21 30.4325 20.5381 31.9551 19.6728 33.2501C18.8075 34.5452 17.5776 35.5545 16.1386 36.1506C14.6997 36.7466 13.1163 36.9025 11.5887 36.5987C10.0611 36.2948 8.65788 35.5448 7.55654 34.4435C6.4552 33.3421 5.70518 31.9389 5.40132 30.4113C5.09746 28.8837 5.25341 27.3003 5.84945 25.8614C6.44549 24.4224 7.45485 23.1925 8.74989 22.3272C10.0449 21.4619 11.5675 21 13.125 21C11.5675 21 10.0449 20.5381 8.74989 19.6728C7.45485 18.8075 6.44549 17.5776 5.84945 16.1386C5.25341 14.6997 5.09746 13.1163 5.40132 11.5887C5.70518 10.0611 6.4552 8.65788 7.55654 7.55654C8.65788 6.4552 10.0611 5.70518 11.5887 5.40132C13.1163 5.09746 14.6997 5.25341 16.1386 5.84945C17.5776 6.44549 18.8075 7.45485 19.6728 8.74989C20.5381 10.0449 21 11.5675 21 13.125C21 11.5675 21.4619 10.0449 22.3272 8.74989C23.1925 7.45485 24.4224 6.44549 25.8614 5.84945C27.3003 5.25341 28.8837 5.09746 30.4113 5.40132C31.9389 5.70518 33.3421 6.4552 34.4435 7.55654C35.5448 8.65788 36.2948 10.0611 36.5987 11.5887C36.9025 13.1163 36.7466 14.6997 36.1506 16.1386C35.5545 17.5776 34.5452 18.8075 33.2501 19.6728C31.9551 20.5381 30.4325 21 28.875 21C30.4325 21 31.9551 21.4619 33.2501 22.3272C34.5452 23.1925 35.5545 24.4224 36.1506 25.8614C36.7466 27.3003 36.9025 28.8837 36.5987 30.4113C36.2948 31.9389 35.5448 33.3421 34.4435 34.4435C33.3421 35.5448 31.9389 36.2948 30.4113 36.5987C28.8837 36.9025 27.3003 36.7466 25.8614 36.1506C24.4224 35.5545 23.1925 34.5452 22.3272 33.2501C21.4619 31.9551 21 30.4325 21 28.875Z" stroke="#774180" stroke-width="3" stroke-linecap="round" stroke-linejoin="round"/>
<path d="M21 13.125V15.75" stroke="#774180" stroke-width="3" stroke-linecap="round" stroke-linejoin="round"/>
<path d="M13.125 21H15.75" stroke="#774180" stroke-width="3" stroke-linecap="round" stroke-linejoin="round"/>
<path d="M28.875 21H26.25" stroke="#774180" stroke-width="3" stroke-linecap="round" stroke-linejoin="round"/>
<path d="M21 28.875V26.25" stroke="#774180" stroke-width="3" stroke-linecap="round" stroke-linejoin="round"/>
<path d="M14 14L17.29 17.29" stroke="#774180" stroke-width="3" stroke-linecap="round" stroke-linejoin="round"/>
<path d="M24.71 17.29L28 14" stroke="#774180" stroke-width="3" stroke-linecap="round" stroke-linejoin="round"/>
<path d="M14 28.0009L17.29 24.7109" stroke="#774180" stroke-width="3" stroke-linecap="round" stroke-linejoin="round"/>
<path d="M24.71 24.7109L28 28.0009" stroke="#774180" stroke-width="3" stroke-linecap="round" stroke-linejoin="round"/>
</svg>
