<svg width="26" height="31" viewBox="0 0 26 31" fill="none" xmlns="http://www.w3.org/2000/svg">
<path d="M20.8595 19.5632C20.5678 21.1926 19.7839 22.6936 18.6133 23.8639C17.4426 25.0343 15.9415 25.8179 14.312 26.1093C14.2502 26.1192 14.1876 26.1244 14.125 26.1248C13.8428 26.1247 13.5709 26.0186 13.3633 25.8274C13.1557 25.6363 13.0275 25.3741 13.0042 25.0929C12.9808 24.8117 13.064 24.5319 13.2372 24.3092C13.4104 24.0864 13.6611 23.9369 13.9394 23.8902C16.2695 23.4979 18.2467 21.5207 18.6419 19.1863C18.6919 18.8921 18.8567 18.6297 19.1001 18.457C19.3435 18.2842 19.6456 18.2153 19.9398 18.2652C20.2341 18.3152 20.4965 18.48 20.6692 18.7235C20.8419 18.9669 20.9109 19.2689 20.8609 19.5632H20.8595ZM25.375 18.2498C25.375 21.5318 24.0712 24.6795 21.7504 27.0002C19.4297 29.321 16.2821 30.6248 13 30.6248C9.71795 30.6248 6.57032 29.321 4.24955 27.0002C1.92879 24.6795 0.625 21.5318 0.625 18.2498C0.625 14.3235 2.17188 10.3087 5.21781 6.31774C5.31423 6.19137 5.43633 6.08687 5.57607 6.01111C5.71581 5.93536 5.87001 5.89008 6.02852 5.87826C6.18703 5.86643 6.34625 5.88833 6.49568 5.94251C6.64511 5.99669 6.78137 6.08192 6.89547 6.19258L10.2873 9.48462L13.3811 0.98946C13.4429 0.820026 13.5445 0.667936 13.6774 0.546011C13.8103 0.424087 13.9706 0.335901 14.1447 0.28889C14.3188 0.241879 14.5017 0.23742 14.6779 0.275888C14.8541 0.314357 15.0185 0.394626 15.1572 0.509929C18.2327 3.06227 25.375 9.88962 25.375 18.2498ZM23.125 18.2498C23.125 11.7684 18.092 6.16727 14.9392 3.29712L11.8075 11.8851C11.7432 12.0615 11.6358 12.219 11.4951 12.3432C11.3544 12.4675 11.1848 12.5545 11.0018 12.5965C10.8188 12.6384 10.6282 12.6339 10.4475 12.5833C10.2667 12.5328 10.1014 12.4378 9.96672 12.307L6.25844 8.70977C4.01266 11.9512 2.875 15.156 2.875 18.2498C2.875 20.9351 3.94174 23.5104 5.84054 25.4092C7.73935 27.308 10.3147 28.3748 13 28.3748C15.6853 28.3748 18.2606 27.308 20.1595 25.4092C22.0583 23.5104 23.125 20.9351 23.125 18.2498Z" fill="#774180"/>
</svg>
